:FULLY-SPECIFIED
:FORCE-ALL-JOINTS-BE-3DOF
:DEGREES
612
root -4.29494 15.7669 -40.5009 -2.29613 -75.3619 8.85706
lfemur -7.28167 13.4727 -16.0294
ltibia 43.2536 -0 0
lfoot -21.7587 29.6021 0.0386192
ltoes -23.5767 0 0
rfemur -43.4322 -33.8235 20.1641
rtibia 83.569 -0 0
rfoot -15.8666 -20.3904 -0.142792
rtoes 2.14773 -0 0
lowerback 10.7516 5.05228 -6.64658
upperback -2.65779 5.67609 -1.36917
thorax -9.41203 3.05391 1.16583
lowerneck 1.79497 -10.7758 -11.7603
upperneck -0.647335 -14.6823 11.8962
head 1.27513 -7.38878 5.11676
lclavicle -1.2178e-13 -4.77083e-15 0
lhumerus -73.1589 -24.5787 105.446
lradius 102.438 -0 0
lwrist 55.7387 0 0
lhand 6.06939 54.9823 0.500164
lfingers 7.12502 -0 0
lthumb 31.3822 82.0946 0.424371
rclavicle -1.2178e-13 -4.77083e-15 0
rhumerus 27.0142 23.0082 -44.7685
rradius 113.064 -0 0
rwrist -23.9772 0 0
rhand -17.3964 -28.3268 0.14408
rfingers 7.12502 -0 0
rthumb 8.86108 -58.2042 0.0966887
613
root -4.31769 15.7632 -40.4793 -1.97451 -76.0138 8.87627
lfemur -6.9366 13.6708 -16.1652
ltibia 43.1115 -0 0
lfoot -22.0473 30.4072 0.0806969
ltoes -23.79 0 0
rfemur -43.0526 -34.7613 21.2574
rtibia 84.2554 -0 0
rfoot -17.425 -21.8039 -0.242461
rtoes 1.32608 -0 0
lowerback 10.1917 5.11483 -6.83591
upperback -2.86417 5.76369 -1.49122
thorax -9.32478 3.10942 1.15586
lowerneck 1.62342 -10.7073 -11.7247
upperneck -0.427524 -14.5909 12.0301
head 1.36075 -7.33816 5.13569
lclavicle -1.2178e-13 -4.77083e-15 0
lhumerus -74.1795 -24.3886 105.651
lradius 102.342 -0 0
lwrist 55.9025 0 0
lhand 3.98111 54.1384 0.756071
lfingers 7.12502 -0 0
lthumb 29.4122 81.6142 0.675267
rclavicle -1.2178e-13 -4.77083e-15 0
rhumerus 27.2789 20.9946 -45.1221
rradius 112.344 -0 0
rwrist -24.2203 0 0
rhand -18.9884 -28.1431 0.186204
rfingers 7.12502 -0 0
rthumb 7.32796 -58.1252 0.117736
614
root -4.34044 15.7594 -40.4578 -1.93314 -76.5514 9.17465
lfemur -6.2959 13.8579 -16.2386
ltibia 42.6811 -0 0
lfoot -22.358 31.2546 0.136115
ltoes -24.086 0 0
rfemur -42.8276 -35.5377 22.1325
rtibia 84.6874 -0 0
rfoot -18.7334 -22.9882 -0.336897
rtoes 0.58751 -0 0
lowerback 9.64702 5.17707 -7.07302
upperback -3.05168 5.8453 -1.62419
thorax -9.22836 3.16429 1.16109
lowerneck 1.48206 -10.6689 -11.71
upperneck -0.248547 -14.5414 12.1753
head 1.43531 -7.3089 5.16135
lclavicle -1.2178e-13 -4.77083e-15 0
lhumerus -75.4258 -24.0908 105.867
lradius 102.215 -0 0
lwrist 56.3616 0 0
lhand 1.82615 53.4969 1.018
lfingers 7.12502 -0 0
lthumb 27.3892 81.3733 0.955422
rclavicle -1.2178e-13 -4.77083e-15 0
rhumerus 27.3484 19.3744 -45.4307
rradius 111.475 -0 0
rwrist -24.2243 0 0
rhand -20.3033 -27.9258 0.213318
rfingers 7.12502 -0 0
rthumb 6.06123 -57.9883 0.127346
615
root -4.36319 15.7557 -40.4362 -2.1487 -76.9905 9.72611
lfemur -5.41999 14.0327 -16.2573
ltibia 42.0197 -0 0
lfoot -22.6808 32.1251 0.202974
ltoes -24.4469 0 0
rfemur -42.7221 -36.1584 22.8107
rtibia 84.8774 -0 0
rfoot -19.8176 -23.9678 -0.414984
rtoes -0.0803059 0 0
lowerback 9.121 5.23717 -7.34464
upperback -3.22117 5.9209 -1.76365
thorax -9.12499 3.21781 1.17873
lowerneck 1.36656 -10.6551 -11.7119
upperneck -0.107099 -14.5259 12.3269
head 1.49927 -7.29707 5.19195
lclavicle -1.2178e-13 -4.77083e-15 0
lhumerus -76.8339 -23.7056 106.085
lradius 102.064 -0 0
lwrist 57.0508 0 0
lhand -0.364428 53.0221 1.28643
lfingers 7.12502 -0 0
lthumb 25.3409 81.3247 1.2649
rclavicle -1.2178e-13 -4.77083e-15 0
rhumerus 27.2518 18.106 -45.6936
rradius 110.465 -0 0
rwrist -24.0375 0 0
rhand -21.3704 -27.6885 0.227766
rfingers 7.12502 -0 0
rthumb 5.03283 -57.8098 0.12857
616
root -4.38593 15.752 -40.4146 -2.5835 -77.3462 10.4901
lfemur -4.36954 14.1935 -16.2298
ltibia 41.1845 -0 0
lfoot -23.0058 32.9991 0.278883
ltoes -24.8551 0 0
rfemur -42.7026 -36.6307 23.3123
rtibia 84.8375 -0 0
rfoot -20.7034 -24.767 -0.469964
rtoes -0.689703 0 0
lowerback 8.6173 5.2936 -7.63743
upperback -3.37349 5.99049 -1.90514
thorax -9.01691 3.26929 1.20593
lowerneck 1.27263 -10.6605 -11.7261
upperneck 0.000117856 -14.5365 12.4803
head 1.55304 -7.29872 5.22571
lclavicle -1.2178e-13 -4.77083e-15 0
lhumerus -78.3408 -23.254 106.295
lradius 101.897 -0 0
lwrist 57.9046 0 0
lhand -2.5598 52.6793 1.56013
lfingers 7.12502 -0 0
lthumb 23.2949 81.4218 1.60092
rclavicle -1.2178e-13 -4.77083e-15 0
rhumerus 27.018 17.1484 -45.914
rradius 109.32 -0 0
rwrist -23.7082 0 0
rhand -22.2188 -27.4451 0.231272
rfingers 7.12502 -0 0
rthumb 4.21467 -57.606 0.123427
617
root -4.40868 15.7483 -40.3931 -3.18853 -77.6337 11.4149
lfemur -3.2054 14.3383 -16.1647
ltibia 40.233 -0 0
lfoot -23.3234 33.8576 0.360941
ltoes -25.2928 0 0
rfemur -42.7371 -36.9632 23.6577
rtibia 84.5801 -0 0
rfoot -21.4161 -25.4099 -0.498553
rtoes -1.25301 0 0
lowerback 8.13962 5.34515 -7.93802
upperback -3.50945 6.05409 -2.04422
thorax -8.90637 3.31803 1.23988
lowerneck 1.19602 -10.6797 -11.7482
upperneck 0.0764209 -14.5654 12.6308
head 1.59708 -7.3099 5.26086
lclavicle -1.2178e-13 -4.77083e-15 0
lhumerus -79.8845 -22.7577 106.488
lradius 101.722 -0 0
lwrist 58.8576 0 0
lhand -4.72936 52.4341 1.83571
lfingers 7.12502 -0 0
lthumb 21.2784 81.6186 1.95741
rclavicle -1.2178e-13 -4.77083e-15 0
rhumerus 26.6755 16.461 -46.0981
rradius 108.047 -0 0
rwrist -23.2847 0 0
rhand -22.8777 -27.2097 0.225254
rfingers 7.12502 -0 0
rthumb 3.57866 -57.3933 0.113307
618
root -4.43143 15.7446 -40.3715 -3.90736 -77.8684 12.4412
lfemur -1.98866 14.4655 -16.0716
ltibia 39.2225 -0 0
lfoot -23.6238 34.6811 0.445748
ltoes -25.7422 0 0
rfemur -42.7948 -37.1652 23.8671
rtibia 84.1172 -0 0
rfoot -21.9809 -25.9202 -0.50018
rtoes -1.78257 0 0
lowerback 7.69165 5.39087 -8.23302
upperback -3.62989 6.11175 -2.17647
thorax -8.79563 3.36334 1.27774
lowerneck 1.13246 -10.7072 -11.774
upperneck 0.125161 -14.6047 12.7738
head 1.63181 -7.32666 5.29565
lclavicle -1.2178e-13 -4.77083e-15 0
lhumerus -81.4043 -22.2392 106.659
lradius 101.547 -0 0
lwrist 59.8445 0 0
lhand -6.84273 52.2532 2.10742
lfingers 7.12502 -0 0
lthumb 19.3183 81.8705 2.32483
rclavicle -1.2178e-13 -4.77083e-15 0
rhumerus 26.2538 16.0037 -46.2538
rradius 106.654 -0 0
rwrist -22.8154 0 0
rhand -23.3765 -26.9967 0.211069
rfingers 7.12502 -0 0
rthumb 3.09673 -57.1884 0.0992912
619
root -4.45417 15.7409 -40.3499 -4.67993 -78.0663 13.506
lfemur -0.780565 14.5737 -15.9602
ltibia 38.2101 -0 0
lfoot -23.8977 35.4505 0.529452
ltoes -26.1858 0 0
rfemur -42.8464 -37.2464 23.9611
rtibia 83.4612 -0 0
rfoot -22.4226 -26.3213 -0.476327
rtoes -2.29071 0 0
lowerback 7.27716 5.43006 -8.50903
upperback -3.73561 6.16352 -2.29746
thorax -8.68693 3.40456 1.31667
lowerneck 1.0777 -10.7374 -11.7993
upperneck 0.149733 -14.6466 12.9048
head 1.65768 -7.34505 5.32834
lclavicle -1.2178e-13 -4.77083e-15 0
lhumerus -82.8406 -21.7215 106.805
lradius 101.379 -0 0
lwrist 60.7998 0 0
lhand -8.86977 52.1041 2.36706
lfingers 7.12502 -0 0
lthumb 17.4405 82.1339 2.69025
rclavicle -1.2178e-13 -4.77083e-15 0
rhumerus 25.7824 15.7362 -46.3898
rradius 105.145 -0 0
rwrist -22.3485 0 0
rhand -23.7442 -26.8203 0.190195
rfingers 7.12502 -0 0
rthumb 2.74081 -57.0078 0.0823943
